<svg
   version="1.1"
   id="svg2"
   width="80"
   height="30"
   viewBox="0 0 1000 291.66678"
   sodipodi:docname="FIFA_11.svg"
   inkscape:version="1.2.2 (732a01da63, 2022-12-09)"
   xmlns:inkscape="http://www.inkscape.org/namespaces/inkscape"
   xmlns:sodipodi="http://sodipodi.sourceforge.net/DTD/sodipodi-0.dtd"
   xmlns="http://www.w3.org/2000/svg"
   xmlns:svg="http://www.w3.org/2000/svg">
  <defs
     id="defs6" />
  <sodipodi:namedview
     id="namedview4"
     pagecolor="#ffffff"
     bordercolor="#000000"
     borderopacity="0.25"
     inkscape:showpageshadow="2"
     inkscape:pageopacity="0.0"
     inkscape:pagecheckerboard="0"
     inkscape:deskcolor="#d1d1d1"
     showgrid="false"
     showguides="true"
     inkscape:zoom="0.4825"
     inkscape:cx="592.74611"
     inkscape:cy="-140.93264"
     inkscape:window-width="1920"
     inkscape:window-height="1017"
     inkscape:window-x="-8"
     inkscape:window-y="-8"
     inkscape:window-maximized="1"
     inkscape:current-layer="g8" />
  <g
     inkscape:groupmode="layer"
     inkscape:label="Image"
     id="g8"
     transform="translate(-3.6239624e-6,7.7056885e-5)">
    <g
       aria-label="FIFA"
       id="text178"
       style="font-size:496.454px;font-family:'EA Sans Curves';-inkscape-font-specification:'EA Sans Curves, Normal';fill:#ffffff;fill-rule:evenodd;stroke-width:2.16274"
       inkscape:label="FIFA"
       transform="matrix(0.83333347,0,0,0.83333347,6.0399325e-7,-1.2842804e-5)">
      <path
         d="M 3.6239624e-6,350 V 79.432565 Q 3.6239624e-6,63.049582 5.4609977,49.14887 11.418446,34.751704 21.84398,24.326169 32.269514,13.900635 46.170227,8.4396411 60.567393,2.482193 76.950375,2.482193 H 213.47523 V 71.985754 H 104.25535 q -10.425538,0 -15.390079,6.453903 -4.468086,6.453902 -4.468086,13.404258 v 49.645405 h 94.326265 v 69.50356 H 84.397185 V 350 Z"
         id="path284" />
      <path
         d="M 317.73022,2.482193 V 350 H 233.33304 V 2.482193 Z"
         id="path286" />
      <path
         d="M 347.51725,350 V 79.432565 q 0,-16.382983 5.46099,-30.283695 5.95745,-14.397166 16.38298,-24.822701 Q 379.78676,13.900635 393.68747,8.4396411 408.08464,2.482193 424.46762,2.482193 H 560.99247 V 71.985754 H 451.77259 q -10.42554,0 -15.39008,6.453903 -4.46808,6.453902 -4.46808,13.404258 v 49.645405 h 94.32626 v 69.50356 H 431.91443 V 350 Z"
         id="path288" />
      <path
         d="m 680.14109,161.34748 h 44.68086 V 89.361645 q 0,-8.439718 -4.96454,-13.900713 -4.46809,-5.957448 -14.89362,-5.957448 h -19.85816 q -10.42554,0 -15.39008,6.453902 -4.46808,6.453903 -4.46808,13.404259 V 350 H 580.85028 V 76.950294 q 0,-16.382982 5.461,-30.283694 5.95745,-14.397166 16.38298,-24.822701 Q 613.1198,11.418365 627.02051,5.9573711 641.41767,-7.7056885e-5 657.80066,-7.7056885e-5 h 74.4681 q 16.38298,0 30.28369,5.957448156885 14.39717,5.4609939 24.8227,15.8865279 10.42554,10.425535 15.88653,24.822701 5.95745,13.900712 5.95745,30.283694 V 350 H 724.82195 V 230.85104 h -44.68086 z"
         id="path290" />
    </g>
    <g
       aria-label="11"
       transform="matrix(0.83301353,0,0,0.83365355,6.0399325e-7,-1.2842804e-5)"
       id="text297"
       style="font-size:496.263px;font-family:'EA Sans Curves';-inkscape-font-specification:'EA Sans Curves, Normal';display:inline;fill:#e51b24;fill-opacity:1;fill-rule:evenodd;stroke-width:2.16191">
      <path
         d="M 965.77884,349.86563 V 89.327556 c 0,-4.631788 -1.76113,-8.331413 -4.96263,-12.712409 -3.08648,-4.223599 -7.94021,-6.480976 -14.88789,-6.480976 h -32.2571 V 2.1575928e-4 h 59.55156 c 10.91779,0 20.92569,2.18379624072 30.27212,5.95515604072 9.5158,3.8397139 17.8654,8.9327342 24.8131,15.8804162 6.9477,6.947682 12.0406,15.297092 15.8804,24.81315 3.7713,9.346158 5.9552,19.354257 5.9552,30.272043 V 349.86563 Z"
         id="path506"
         sodipodi:nodetypes="csssccssssscc"
         style="fill:#e51b24;fill-opacity:1" />
      <path
         d="M 1117.074,349.86563 V 89.327556 c 0,-4.631788 -1.2813,-8.144099 -4.4828,-12.525084 -3.0865,-4.223609 -9.3995,-6.526793 -16.3457,-6.668301 H 1065.187 V 2.1575928e-4 h 58.353 c 10.9178,0 21.0085,1.98505204072 30.272,5.95515604072 9.5944,3.6392621 17.8655,8.9327342 24.8132,15.8804162 6.9477,6.947682 13.2069,15.297091 17.0467,24.81315 3.7712,9.346157 4.7888,19.354257 4.7888,30.272043 V 349.86563 Z"
         id="path508"
         sodipodi:nodetypes="csssccscssscc"
         style="opacity:1;fill:#e51b24;fill-opacity:1" />
    </g>
  </g>
</svg>
